# xmcd
#
# Track frame offsets:
#	150
#	13398
#	30032
#	52782
#	71327
#	90683
#	112884
#	132067
#	149883
#	173042
#	185775
#	202045
#
# Disc length: 2975 seconds
# Revision: 0
# Processed by: cddbd v1.5.2PL0 Copyright (c) Steve Scherf et al.
# Submitted via: dBpowerAMP V12.0
#
DISCID=a30b9d0c
DTITLE=Tommy Malone - Natural Born Days
DYEAR=2013
DGENRE=Southern R and B
TTITLE0=Home
TTITLE1=Hope Diner
TTITLE2=God Knows (Just Ain't Talkin')
TTITLE3=Wake Up Time
TTITLE4=Distance
TTITLE5=Mississippi Bootleggers
TTITLE6=Didn't Wanna Hear It
TTITLE7=Natural Born Days
TTITLE8=No Reason
TTITLE9=Important To Me
TTITLE10=Life Goes On
TTITLE11=Word On the Street
EXTD=
EXTT0=
EXTT1=
EXTT2=
EXTT3=
EXTT4=
EXTT5=
EXTT6=
EXTT7=
EXTT8=
EXTT9=
EXTT10=
EXTT11=
PLAYORDER=
